<svg height="800" viewBox="0 0 18.566 18.566" width="800" xmlns="http://www.w3.org/2000/svg"><path d="m17.705 11.452h-.73v-3.65c.929-.352 1.591-1.247 1.591-2.299 0-1.359-1.102-2.46-2.461-2.46-1.044 0-1.936.651-2.291 1.568h-1.668v-.089c0-.475-.384-.86-.859-.86h-5.2c-.475 0-.859.386-.859.86v.088h-1.662v-1.686c0-.475-.385-.86-.859-.86h-1.467c-.475 0-.859.385-.859.86v5.199c0 .476.385.859.859.859h1.467c.474 0 .859-.384.859-.859v-2.223h1.663v.089c0 .475.384.86.859.86h5.199c.476 0 .859-.385.859-.86v-.089h1.533c.168 1.032.977 1.848 2.006 2.025v3.527h-3.179c-.475 0-.859.385-.859.858v.089h-1.796v-1.955c0-.474-.386-.859-.86-.859h-1.467c-.475 0-.859.386-.859.859v1.955h-1.832c-.284-1.046-1.237-1.815-2.372-1.815-1.359-0-2.461 1.102-2.461 2.46 0 1.359 1.102 2.46 2.461 2.46 1.136 0 2.088-.769 2.372-1.815h1.832v1.955c0 .476.385.859.859.859h1.467c.474 0 .86-.384.86-.859v-1.955h1.796v.089c0 .476.385.859.859.859h5.199c.476 0 .86-.384.86-.859v-1.467c0-.474-.385-.859-.86-.859z" fill="#5AC7B8"/></svg>