<svg fill="#5AC7B8" height="800" viewBox="0 0 24 24" width="800" xmlns="http://www.w3.org/2000/svg" ><path d="m20.9098 11.1203v-4.38999c0-.82-.62-1.75-1.39-2.06l-5.57-2.28c-1.25-.51-2.66-.51-3.91 0l-5.56996 2.28c-.76.31-1.38 1.24-1.38 2.06v4.38999c0 4.89 3.55 9.47 8.39996 10.81.33.09.69.09 1.02 0 4.85-1.34 8.4-5.92 8.4-10.81zm-8.16 1.75v2.63c0 .41-.34.75-.75.75s-.75-.34-.75-.75v-2.63c-1.01-.32-1.74996-1.26-1.74996-2.37 0-1.37999 1.11996-2.49999 2.49996-2.49999s2.5 1.12 2.5 2.49999c0 1.12-.74 2.05-1.75 2.37z" fill="#292d32"/></svg>